<svg viewBox="0 0 100 100" xmlns="http://www.w3.org/2000/svg">
    <title>Centralized-Yellow</title>
    <g stroke-width="4" fill="none" fill-rule="evenodd" stroke-linecap="round">
        <path stroke="#fff" stroke-linejoin="round" d="M40 60.25h20.25V40H40zM69.553 69.447l-9.735-9.734M30.97 31.005l9.443 9.443M69.634 30.632l-9.816 9.816M31.053 69.073l9.36-9.36" />
        <path d="M50.125 53.659a3.538 3.538 0 0 0 3.534-3.534 3.538 3.538 0 0 0-3.534-3.534 3.538 3.538 0 0 0-3.534 3.534 3.538 3.538 0 0 0 3.534 3.534zM75 83c-4.41 0-8-3.59-8-8s3.59-8 8-8 8 3.59 8 8-3.59 8-8 8zM17 75c0-4.41 3.59-8 8-8s8 3.59 8 8-3.59 8-8 8-8-3.59-8-8zM25 33c-4.41 0-8-3.59-8-8s3.59-8 8-8 8 3.59 8 8-3.59 8-8 8zM75 17c4.41 0 8 3.59 8 8s-3.59 8-8 8-8-3.59-8-8 3.59-8 8-8z" stroke="#f1f1f1" />
    </g>
</svg>