<?xml version="1.0" standalone="no"?>
<!DOCTYPE svg PUBLIC "-//W3C//DTD SVG 20010904//EN"
 "http://www.w3.org/TR/2001/REC-SVG-20010904/DTD/svg10.dtd">
<svg version="1.0" xmlns="http://www.w3.org/2000/svg"
 viewBox="0 0 300.000000 345.000000"
 preserveAspectRatio="xMidYMid meet">

<g transform="translate(0.000000,345.000000) scale(0.100000,-0.100000)"
fill="#646464" stroke="none">
<path d="M1387 3390 c-27 -5 -51 -11 -53 -13 -3 -2 5 -71 16 -153 11 -82 22
-159 23 -172 2 -21 -12 -29 -128 -77 -71 -30 -134 -54 -140 -54 -5 0 -55 60
-110 134 -55 74 -103 135 -108 135 -17 0 -94 -59 -169 -129 -65 -61 -188 -206
-188 -223 0 -3 61 -51 135 -108 74 -56 135 -107 135 -113 0 -10 -99 -256 -106
-266 -2 -2 -80 7 -173 20 -94 12 -173 21 -175 18 -32 -32 -32 -466 0 -498 3
-3 79 5 170 17 91 12 169 20 173 18 4 -3 30 -58 56 -121 l48 -117 114 114 113
113 -20 79 c-53 207 5 414 159 566 87 87 164 131 277 160 317 81 634 -104 730
-425 28 -93 24 -238 -9 -340 -99 -301 -416 -478 -720 -400 l-68 17 -114 -107
c-63 -59 -115 -110 -115 -114 0 -4 48 -27 108 -50 59 -24 111 -48 116 -52 5
-5 0 -76 -14 -174 -14 -102 -20 -169 -14 -175 20 -20 247 -34 361 -22 132 13
144 17 138 46 -9 39 -45 319 -42 322 12 13 272 112 277 107 4 -5 51 -66 105
-138 54 -71 100 -132 102 -134 6 -8 151 111 214 176 67 69 155 181 148 187 -2
2 -66 49 -142 106 -76 57 -136 108 -133 114 2 6 28 67 56 136 28 69 53 126 54
128 2 1 79 -9 172 -22 93 -14 172 -22 175 -18 11 11 29 169 29 246 0 65 -18
247 -25 254 -2 2 -80 -7 -174 -19 -94 -13 -173 -21 -175 -18 -3 3 -30 65 -60
137 l-55 132 140 106 140 105 -18 30 c-37 62 -155 189 -239 257 -49 39 -93 72
-99 72 -5 0 -55 -61 -110 -135 -55 -74 -105 -134 -111 -135 -12 0 -255 99
-265 109 -4 3 4 78 17 166 13 88 24 165 24 171 0 29 -323 45 -453 24z"/>
<path d="M1557 2526 c-55 -15 -144 -73 -173 -113 -55 -75 -84 -164 -84 -263
l0 -65 -393 -393 -392 -392 -50 0 c-173 -1 -311 -75 -374 -201 -31 -63 -49
-167 -34 -206 8 -21 17 -15 123 92 l115 115 132 -132 133 -133 -117 -117 -116
-116 35 -7 c47 -9 136 9 196 39 27 14 70 48 95 76 61 68 88 141 95 258 l5 92
197 208 c108 114 284 288 390 387 l192 180 92 6 c104 8 186 35 249 83 45 34
101 118 117 176 12 41 13 160 3 160 -4 0 -58 -51 -120 -112 l-113 -113 -133
133 -132 133 119 113 c129 122 130 127 38 125 -26 0 -68 -6 -95 -13z"/>
</g>
</svg>
